<svg xmlns="http://www.w3.org/2000/svg" viewBox="0 0 54.20993 44.4519"><defs><style>.a{fill:none;stroke:#472C0E; stroke-miterlimit:10;}</style></defs><title>belgium</title><path class="a" d="M22.54573,33.38143a2.24964,2.24964,0,0,0-.1266-.48756.61912.61912,0,0,1,.35091-.96429c.76736-.30638.79706-.37469.47684-1.09464a.29269.29269,0,0,1-.03961-.10275c-.00581-.59457-.29242-.793-1.01174-.50993a6.05613,6.05613,0,0,0,.27513-.853,3.00708,3.00708,0,0,1,.70175-1.71445c.38019-.42144-.13853-.6314-.49158-.794l-.18393.49212c-.14-.15428-.35926-.28774-.40622-.46647-.18945-.7211-.8695-.9976-1.33071-1.4493-.1496-.14652-.735.06726-1.07379.22072a1.309,1.309,0,0,1-1.093-.01929,4.71435,4.71435,0,0,0-1.53534-.18484c-.13963-.00041-.27674.29051-.4213.44171-.10687.11178-.22063.29218-.33745.29713a.44892.44892,0,0,1-.32129-.29132,4.11886,4.11886,0,0,1-.153-1.27442,2.35984,2.35984,0,0,0-.755-2.09466c-.2298-.2131-.71915-.162-1.09352-.1959a2.17965,2.17965,0,0,0-.56262.12326l.18469-.80834c-.25175.03573-.50593-.00385-.64686.10424a1.565,1.565,0,0,1-2.33162-.11227,1.31751,1.31751,0,0,1-.20905-.59721c-.12919-.54771-.23728-1.10037-.3657-1.64827-.08441-.36012-.34849-.70107.0301-1.07659a.63139.63139,0,0,0-.13277-.57006c-.72149-.293-.84806-1.03114-1.22474-1.56926a.459.459,0,0,0-.68326-.18215,3.794,3.794,0,0,1-.62212.16864c-.78988.19087-1.59291.3689-1.87834,1.28626-.14834.47674-.42639.33533-.73259.19512-.22968-.10517-.48333-.16087-.70616-.2772a1.16954,1.16954,0,0,1-.438-.36c-.33718-.51854-.61838-1.075-.976-1.5778-.10311-.145-.38625-.194-.596-.225a.97322.97322,0,0,1-.90761-1.04311c-.00636-.32789-.07639-.65411-.09777-.98238a.59253.59253,0,0,1,.06424-.3959.82648.82648,0,0,0-.08325-1.23779A1.47948,1.47948,0,0,1,.608,10.5654C.38911,9.19584.4042,9.246,1.613,8.51019c2.00159-1.21841,3.9429-2.53613,5.94909-3.74656a14.17,14.17,0,0,1,2.21326-.91324c.42948-.16725.86557-.32033,1.30651-.454.177-.05364.51437-.09948.5392-.0432a1.12888,1.12888,0,0,1,.14194.76432.96192.96192,0,0,0,.22037,1.14863c.42345.488.87836.86906,1.56078.653.12127-.0384.24856-.3394.2245-.49638-.04963-.32395.09245-.36674.34687-.48889.81328-.3905,1.42829.25166,2.14358.33844.179.02171.34955.11.52856.135.41589.058.75753.13039.626.70552-.0883.38616.18506.52217.53516.51309q.8406-.02178,1.681-.0509a.36023.36023,0,0,0,.16063-.03559c1.35761-.76972,2.93219-1.26685,3.74021-2.75121.24358-.44748.48742-.74875.99837-.69731a4.41871,4.41871,0,0,1,.74376.23991,1.5924,1.5924,0,0,0,.60693.12485c.37612-.05.51986-.27181.26776-.62021-.829-1.14564-.5633-1.29751.6968-1.79439A1.10836,1.10836,0,0,1,27.37369.907c.16445.02808.42779.18639.43543.30168.03458.52171.25.72469.78652.77876,1.24668.12565,1.24133.15658,1.8575-.94823.0796-.14272.16794-.3278.29908-.384.22414-.09612.54376-.214.71478-.12168.17543.09468.27292.42273.30822.66281a2.981,2.981,0,0,1-.09.76833l-.55613.05125c.06541.42332.34637.41291.61589.36609a1.41781,1.41781,0,0,1,1.31484.1568.258.258,0,0,0,.24885.01085c.36349-.38085.71941-.76971,1.06043-1.17078A3.71457,3.71457,0,0,0,34.68058.871c.22674.16923.55516.29373.65429.51909a3.41032,3.41032,0,0,1,.07082.9629,2.7586,2.7586,0,0,0,.1549.73735,8.90229,8.90229,0,0,1,.47119.97465c.08482.32577.25451.35965.51659.34643.88359-.04458.90805-.01071.81129.83262-.01218.10615.1082.327.16337.32575.46674-.01048.933-.05619,1.39848-.10066.1353-.01293.29111-.11625.39745-.075.49022.19038.85282-.08717,1.2224-.306a.82759.82759,0,0,1,1.27437.59377,1.52315,1.52315,0,0,0,1.37508,1.40127c.411.06092.83406.04966,1.24042.12881a2.87074,2.87074,0,0,1,.74619.32151c.091.0477.13405.21113.22256.23527.53651.14636.67334.36608.1764.74684-.24693.1892.0489.447-.14608.75493-.28734.45379-.91694.88813-.63533,1.62887.06.1577-.07523.43274-.19256.60452-.17282.253-.43615.401-.1195.78654.08994.10949-.25457.632-.46534.91661-.2119.28611-.594.47089-.73515.77683a.99839.99839,0,0,0,.07035.8943,1.66032,1.66032,0,0,1,.36888,1.69925l1.08306-.45468-.0403.106c.43521.06188.86932.13332,1.30588.18347.72253.083,1.452.12212,2.16614.24946.16959.03025.28993.33669.49615.59543.92813-.22847,1.321.64372,1.53778,1.282.25654.75518.80886.80466,1.48676,1.09636a11.85645,11.85645,0,0,0-.82726.86082c-.166.21051-.42824.588-.355.70036.25256.38745.28052,1.05178,1.01155.98837a3.32143,3.32143,0,0,1,.87351.11359c.10087.019.25807.08205.27453.152.13873.58979.63377,1.14857.25648,1.79014-.241.40975-.09305.66569.17684.97146a2.772,2.772,0,0,1,.33224.68821,2.64646,2.64646,0,0,1-.75577.16711c-.48393-.03672-.56736.27955-.71462.614a1.43161,1.43161,0,0,1-.4581.51035c-.31568.23906-.67819.41861-.98034.67173-.08716.073-.06207.31615-.04078.4749.04374.32624.17424.64722-.305.79815-.10016.03155-.11339.33006-.17271.50349-.04183.12226-.09385.241-.14131.36135-.10231-.07812-.28182-.14584-.294-.2361-.063-.46766-.20467-.61317-.6318-.27829-.0764.0599-.35284-.04992-.47811-.15291-.4773-.3924-.88722-.25156-1.05574.34732a1.81055,1.81055,0,0,1-.38746.54407,5.183,5.183,0,0,0-.55944.68818c-.31345.57883-.58045,1.18281-.86618,1.77664-.0159.03306-.05153.07456-.0425.09907.24239.65795-.28881.84246-.64272,1.20332a3.69333,3.69333,0,0,0-.50851,1.23462l.45534.36712a1.60934,1.60934,0,0,0-.33273,1.59469c.03473.082.07024.22753.1156.23167.75891.06926.66841.75265.90232,1.20554a.63862.63862,0,0,0,.35945.3143c.333.07474.47086.21185.296.53473-.16022.29591-.13878.513.19166.6783.33252.16633.303.46111.12323.70009a1.37191,1.37191,0,0,0-.39375,1.26969c.07406.27209-.59242.70572-.89576.61437a4.51035,4.51035,0,0,1-.48074-.20879c-.23274.49726-.633.47033-1.0689.36717-.67473-.15966-.8702-.03808-1.10614.69015a.81439.81439,0,0,0-1.16008-.03022c-.26683.19689-.71033.462-1.07359-.02235.44868-.65037-.12166-1.17224-.333-1.686a1.02725,1.02725,0,0,0-1.52421-.53324,1.07179,1.07179,0,0,1-.02642-.315c.22207-.77922-.18479-1.22612-1.01417-1.22353a1.216,1.216,0,0,1-1.14783-.43888c-.19046-.24967-.42614-.52455-.64455-.78781a2.11143,2.11143,0,0,0-.499-.3876,7.481,7.481,0,0,0-1.02355-.6066,1.878,1.878,0,0,0-.7686-.09478c-.36122.008-.7214.06315-.98142.08838a11.20821,11.20821,0,0,1-.214-1.29546,1.83284,1.83284,0,0,1,.17115-.73458,1.01871,1.01871,0,0,0-.6658-1.48282c-.40427-.13712-.49519-.27135-.25534-.71758a6.43754,6.43754,0,0,0,.3731-1.5336,6.16738,6.16738,0,0,1,.253-.83667c.08776-.22063.24778-.41263.33451-.63352a1.11638,1.11638,0,0,0,.07267-.49408c-.29408-.10122-.65359-.27646-.90076-.18308-.30971.117-.5291.46937-.79215.71514-.14337.134-.3.25365-.44436.38667-.3094.28516-.65692.47618-.4163,1.0739.12567.3122-.12787,1.09995-.37066,1.17882a11.13447,11.13447,0,0,0-2.31932,1.07323,2.3004,2.3004,0,0,1-2.03078-.10578,1.78874,1.78874,0,0,0-1.257-.13707A1.37643,1.37643,0,0,1,22.54573,33.38143Z"/></svg>