<svg xmlns="http://www.w3.org/2000/svg" xmlns:xlink="http://www.w3.org/1999/xlink" width="1366.456" height="344.709" viewBox="0 0 1366.456 344.709"><defs><linearGradient id="a" x1="0.5" x2="0.5" y2="1" gradientUnits="objectBoundingBox"><stop offset="0" stop-color="#efeae2"/><stop offset="1" stop-color="#efeae2" stop-opacity="0"/></linearGradient></defs><path d="M2175.456,1137.874c0-21.958-104.985-44.881-155.53,2.994-66.1-2.994-104.985,20.947-132.2,65.834-35-8.98-77.765,11.967-89.435,29.921-15.551-86.776-221.633-128.67-279.953-11.967-42.77-5.986-66.1,2.993-89.428,17.954-23.332-32.914-69.99-53.861-128.317-32.914-31.107-83.788-124.423-95.755-186.637-74.809-27.213-11.973-38.883-14.967-73.871-8.98,3.888-134.656-143.867-155.6-190.525-137.65-25.737-14.811-34.3-15.92-40.563-14.96v344.454H2175.456Z" transform="translate(-809 -973.043)" fill="url(#a)"/></svg>