<svg  preserveAspectRatio="none" xmlns="http://www.w3.org/2000/svg" viewBox="0 0 241.39535 24.73879"><defs><style>.a{fill:#ffcb51;}</style></defs><title>Fichier 101</title><path class="a" d="M156.08526,17.55218c26.56928,1.19089,30.64234.66524,52.72946,4,13.24663,2,28.24663,3,32.24249-7,1.63685-4.09637-2.99586-9-6.87776-10-10.21983-2.6327-29.9499,1-65.485,1-20.07,0-43.55912-3-72.21643-5-31.90465-2.22664-51.4167,3-68.77756,3-7.63914,0-18.63914-4-24.65732,1a7.80847,7.80847,0,0,0-.43887,12,39.65026,39.65026,0,0,0,16.24248,7c22.08868,3.818,45.713-2.68384,63.31463-4C122.28165,16.55218,134.31745,16.57649,156.08526,17.55218Z"/></svg>