<svg xmlns="http://www.w3.org/2000/svg" width="120.511" height="101.197" viewBox="0 0 120.511 101.197"><path d="M-1110.979,2859.462c3.727-4.97,6.212-7.455,10.536-12.8,0,0-8.051-7.081-22.96-7.081-21.12,0-38.514,17.393-38.514,39.755,0,19.878,17.393,38.512,38.514,38.512h58.07c7.777-3.726,14.947-11.952,14.947-11.952a33.417,33.417,0,0,0,8.981-22.833,33.553,33.553,0,0,0-37.388-33.33,33.611,33.611,0,0,0-29.572,30.351c-.515,5.96,1.113,15.4,4.84,21.614H-1123.4c-13.666,0-23.606-10.56-23.606-22.363,0-12.424,8.7-23.605,23.606-23.605A20.986,20.986,0,0,1-1110.979,2859.462Zm53.379,26.086c-.637,9.2-8.656,16.154-17.878,16.154h-.325a16.5,16.5,0,0,1-16.541-16.489v-.369c0-9.221,6.953-17.247,16.152-17.886A17.4,17.4,0,0,1-1057.6,2885.548Z" transform="translate(1161.917 -2839.584)" fill="#472c0e"/><path d="M-642.015,3417.1l10.972,17.555a.823.823,0,0,0,1.375.031l4.919-7.155a7.462,7.462,0,0,0-6.149-11.689h-10.421A.823.823,0,0,0-642.015,3417.1Z" transform="translate(716.102 -3333.841)" fill="#472c0e"/><g transform="translate(29.048 82.912)"><path d="M-705.77,2288.938h-.951a4.139,4.139,0,0,1-4.248-4.039,4.115,4.115,0,0,1,4.248-4.263,3.765,3.765,0,0,1,2.236.673c.671-.9,1.118-1.346,1.9-2.311a6.527,6.527,0,0,0-4.132-1.279,7.029,7.029,0,0,0-6.931,7.18,7.129,7.129,0,0,0,6.931,6.956h1.98Z" transform="translate(713.651 -2277.719)" fill="#472c0e"/><g transform="translate(9.255 1.205)"><path d="M-626.943,2327.844a6.962,6.962,0,0,1,1.625-.69,6.685,6.685,0,0,1,1.822-.242,5.149,5.149,0,0,1,1.4.179,2.885,2.885,0,0,1,1.089.564,2.476,2.476,0,0,1,.7.986,3.868,3.868,0,0,1,.241,1.443v5.556h-1.839l-.214-.878h-.072a2.838,2.838,0,0,1-1.045.789,3.549,3.549,0,0,1-1.473.287,3.421,3.421,0,0,1-1.232-.206,2.774,2.774,0,0,1-.911-.556,2.221,2.221,0,0,1-.563-.833,2.853,2.853,0,0,1-.187-1.04,2.44,2.44,0,0,1,.312-1.264,2.518,2.518,0,0,1,.866-.869,4.126,4.126,0,0,1,1.295-.5,7.5,7.5,0,0,1,1.6-.162h1.072v-.52a1.023,1.023,0,0,0-.366-.87,1.67,1.67,0,0,0-1.027-.278,3.727,3.727,0,0,0-1.063.161,6.343,6.343,0,0,0-1.205.52Zm4.5,4.05-.768.018a2.724,2.724,0,0,0-1.518.367.982.982,0,0,0-.429.8.9.9,0,0,0,.366.833,1.558,1.558,0,0,0,.831.224,1.613,1.613,0,0,0,.884-.269,1.931,1.931,0,0,0,.634-.627Z" transform="translate(627.604 -2322.826)" fill="#472c0e"/><path d="M-544.757,2301.884v-12.8h2.339v12.8Z" transform="translate(553.668 -2289.069)" fill="#472c0e"/><path d="M-508.441,2291.357a1.257,1.257,0,0,1-.947-.35,1.2,1.2,0,0,1-.339-.869,1.2,1.2,0,0,1,.339-.869,1.259,1.259,0,0,1,.947-.349,1.266,1.266,0,0,1,.938.349,1.183,1.183,0,0,1,.348.869,1.2,1.2,0,0,1-.339.869A1.258,1.258,0,0,1-508.441,2291.357Zm-1.2,10.378v-8.55h2.375v8.55Z" transform="translate(522.406 -2288.92)" fill="#472c0e"/><path d="M-478.331,2329.995a2.889,2.889,0,0,1,.277-1.273,2.849,2.849,0,0,1,.768-.976,3.492,3.492,0,0,1,1.161-.619,4.815,4.815,0,0,1,1.473-.215,5.352,5.352,0,0,1,.661.045,4.211,4.211,0,0,1,.661.134h3.643v1.505h-.768l-1.107-.161a2.4,2.4,0,0,1,.384.717,2.577,2.577,0,0,1,.152.861,2.749,2.749,0,0,1-.973,2.2,3.973,3.973,0,0,1-2.67.833,3.826,3.826,0,0,1-.786-.072.614.614,0,0,0-.447.592.5.5,0,0,0,.2.43,1.237,1.237,0,0,0,.7.143h1.911a3.752,3.752,0,0,1,2.259.618,2.285,2.285,0,0,1,.848,1.98,2.553,2.553,0,0,1-.33,1.282,3.062,3.062,0,0,1-.938,1,4.727,4.727,0,0,1-1.464.654,7.3,7.3,0,0,1-1.911.233,5.907,5.907,0,0,1-3.081-.69,2.191,2.191,0,0,1-1.134-1.98,1.494,1.494,0,0,1,.393-1.031,2.612,2.612,0,0,1,1.089-.69,2.383,2.383,0,0,1-.5-.511,1.344,1.344,0,0,1-.25-.833,1.548,1.548,0,0,1,.357-1.022,2.5,2.5,0,0,1,.911-.681,2.873,2.873,0,0,1-.527-.368,2.886,2.886,0,0,1-.473-.528,2.742,2.742,0,0,1-.348-.7A2.722,2.722,0,0,1-478.331,2329.995Zm2.286,5.932a1.364,1.364,0,0,0-.447.377.942.942,0,0,0-.179.591,1.047,1.047,0,0,0,.473.869,2.847,2.847,0,0,0,1.634.349,2.892,2.892,0,0,0,1.7-.395,1.115,1.115,0,0,0,.536-.9.74.74,0,0,0-.339-.7,2.17,2.17,0,0,0-1.054-.2Zm2.7-5.95a1.4,1.4,0,0,0-.375-1.058,1.315,1.315,0,0,0-.947-.359,1.307,1.307,0,0,0-.955.359,1.39,1.39,0,0,0-.366,1.039,1.421,1.421,0,0,0,.375,1.075,1.314,1.314,0,0,0,.946.358,1.308,1.308,0,0,0,.956-.358A1.417,1.417,0,0,0-473.349,2329.977Z" transform="translate(494.849 -2322.826)" fill="#472c0e"/><path d="M-386.254,2331.3a5.05,5.05,0,0,1-.339,1.9,4.093,4.093,0,0,1-.938,1.425,4.138,4.138,0,0,1-1.4.9,4.726,4.726,0,0,1-1.732.314,5.046,5.046,0,0,1-1.723-.287,3.853,3.853,0,0,1-1.375-.842,3.888,3.888,0,0,1-.911-1.371,4.906,4.906,0,0,1-.33-1.855,5.222,5.222,0,0,1,.339-1.945,4.079,4.079,0,0,1,.938-1.434,4.045,4.045,0,0,1,1.4-.887,4.851,4.851,0,0,1,1.732-.3,5.048,5.048,0,0,1,1.723.287,3.92,3.92,0,0,1,1.375.833,3.793,3.793,0,0,1,.911,1.371A5.083,5.083,0,0,1-386.254,2331.3Zm-2.447.09a4.287,4.287,0,0,0-.161-1.255,2.427,2.427,0,0,0-.429-.842,1.651,1.651,0,0,0-.625-.475,1.85,1.85,0,0,0-.732-.153,1.921,1.921,0,0,0-.714.135,1.545,1.545,0,0,0-.607.448,2.329,2.329,0,0,0-.429.833,4.506,4.506,0,0,0-.161,1.308,4.048,4.048,0,0,0,.161,1.21,2.341,2.341,0,0,0,.438.833,1.84,1.84,0,0,0,.625.484,1.7,1.7,0,0,0,.723.161,1.928,1.928,0,0,0,.714-.134,1.521,1.521,0,0,0,.607-.457,2.437,2.437,0,0,0,.429-.833A4.266,4.266,0,0,0-388.7,2331.393Z" transform="translate(420.024 -2322.826)" fill="#472c0e"/></g></g></svg>