<svg xmlns="http://www.w3.org/2000/svg" viewBox="0 0 846.917 711.192"><defs><style>.a{fill:#472C0E}</style></defs><path class="a" d="M357.975 139.698c26.194-34.925 43.656-52.387 74.045-89.931 0 0-56.582-49.767-161.356-49.767C122.235 0 0 122.235 0 279.395 0 419.093 122.235 550.06 270.664 550.06H678.76c54.653-26.194 105.045-84.003 105.045-84.003a234.852 234.852 0 0 0 63.112-160.468c0-139.093-120.463-250.05-262.751-234.236-110.417 12.273-198.26 102.62-207.822 213.304-3.619 41.886 7.825 108.243 34.018 151.898H270.664c-96.042 0-165.89-74.214-165.89-157.16 0-87.31 61.117-165.89 165.89-165.89 34.925 0 61.118 8.73 87.311 26.193zM733.11 323.032c-4.48 64.654-60.833 113.523-125.641 113.523h-2.284c-64.323 0-116.243-51.882-116.243-115.882v-2.594c0-64.805 48.863-121.205 113.513-125.691A122.258 122.258 0 0 1 733.11 323.032zM520.664 585.099l77.11 123.376a5.782 5.782 0 0 0 9.667.21l34.572-50.286c23.92-34.793-.99-82.146-43.211-82.146h-73.235a5.782 5.782 0 0 0-4.903 8.846z"/></svg>